<svg  xmlns="http://www.w3.org/2000/svg" xmlns:xlink="http://www.w3.org/1999/xlink">
<defs> 
	<symbol viewBox="0 0 24 24" id="division">
		<title>
			division
		</title>
		<path d="M15.7812 7.28125H0.1875V6.46875H15.7812V7.28125ZM7.3125 1.14062C7.3125 0.911458 7.39583 0.708333 7.5625 0.53125C7.73958 0.354167 7.94271 0.265625 8.17188 0.265625C8.40104 0.265625 8.60417 0.354167 8.78125 0.53125C8.95833 0.708333 9.04688 0.911458 9.04688 1.14062C9.04688 1.36979 8.95833 1.57292 8.78125 1.75C8.60417 1.91667 8.40104 2 8.17188 2C7.94271 2 7.73958 1.91667 7.5625 1.75C7.39583 1.57292 7.3125 1.36979 7.3125 1.14062ZM7.3125 13.2969C7.3125 13.0677 7.39583 12.8646 7.5625 12.6875C7.73958 12.5104 7.94271 12.4219 8.17188 12.4219C8.40104 12.4219 8.60417 12.5104 8.78125 12.6875C8.95833 12.8646 9.04688 13.0677 9.04688 13.2969C9.04688 13.526 8.95833 13.7292 8.78125 13.9062C8.60417 14.0729 8.40104 14.1562 8.17188 14.1562C7.94271 14.1562 7.73958 14.0729 7.5625 13.9062C7.39583 13.7292 7.3125 13.526 7.3125 13.2969Z" />
	</symbol>
	<symbol viewBox="0 0 24 24" id="cross">
		<title>
			cross
		</title>
		<path d="M0.703125 12.75L6.70312 6.60938L1.125 0.921875L1.73438 0.3125L7.29688 6L12.875 0.3125L13.4844 0.921875L7.90625 6.60938L13.9219 12.75L13.3125 13.3281L7.3125 7.21875L1.3125 13.3281L0.703125 12.75Z" />
	</symbol>
	<symbol viewBox="0 0 24 24" id="minus">
		<title>
			minus
		</title>
		<path d="M13.0781 1.73438H0.03125V0.890625H13.0781V1.73438Z" />
	</symbol>
	<symbol viewBox="0 0 24 24" id="plus">
		<title>
			plus
		</title>
		<path d="M8.32812 8.03125H15.8438V8.85938H8.32812V16.7188H7.46875V8.85938H0.25V8.03125H7.46875V0.15625H8.32812V8.03125Z" />
	</symbol>
	<symbol viewBox="0 0 24 24" id="percentage">
		<title>
			percentage
		</title>
		<path d="M0.0297852 3.9248C0.0297852 3.46094 0.0989583 3.02148 0.237305 2.60645C0.383789 2.18327 0.595378 1.81299 0.87207 1.49561C1.14062 1.17822 1.47835 0.930013 1.88525 0.750977C2.29215 0.563802 2.76009 0.470215 3.28906 0.470215C3.82617 0.470215 4.29818 0.563802 4.70508 0.750977C5.12012 0.930013 5.46598 1.17822 5.74268 1.49561C6.01123 1.81299 6.21468 2.18327 6.35303 2.60645C6.49951 3.02148 6.57275 3.46094 6.57275 3.9248V4.86475C6.57275 5.32861 6.49951 5.76807 6.35303 6.18311C6.21468 6.59814 6.01123 6.96029 5.74268 7.26953C5.46598 7.58691 5.12419 7.83919 4.71729 8.02637C4.31038 8.2054 3.84245 8.29492 3.31348 8.29492C2.78451 8.29492 2.3125 8.2054 1.89746 8.02637C1.49056 7.83919 1.14876 7.58691 0.87207 7.26953C0.595378 6.96029 0.383789 6.59814 0.237305 6.18311C0.0989583 5.76807 0.0297852 5.32861 0.0297852 4.86475V3.9248ZM1.71436 4.86475C1.71436 5.11702 1.74284 5.36117 1.7998 5.59717C1.85677 5.82503 1.95036 6.02848 2.08057 6.20752C2.21077 6.39469 2.37354 6.54525 2.56885 6.65918C2.7723 6.76497 3.02051 6.81787 3.31348 6.81787C3.59831 6.81787 3.83838 6.76497 4.03369 6.65918C4.23714 6.54525 4.3999 6.39469 4.52197 6.20752C4.64404 6.02848 4.73356 5.82503 4.79053 5.59717C4.85563 5.36117 4.88818 5.11702 4.88818 4.86475V3.9248C4.88818 3.67253 4.85563 3.42839 4.79053 3.19238C4.73356 2.94824 4.64404 2.73258 4.52197 2.54541C4.39176 2.36637 4.22493 2.22396 4.02148 2.11816C3.82617 2.00423 3.58203 1.94727 3.28906 1.94727C3.00423 1.94727 2.76009 2.00423 2.55664 2.11816C2.36133 2.22396 2.20264 2.36637 2.08057 2.54541C1.95036 2.73258 1.85677 2.94824 1.7998 3.19238C1.74284 3.42839 1.71436 3.67253 1.71436 3.9248V4.86475ZM7.36621 14.374C7.36621 13.9102 7.43538 13.4707 7.57373 13.0557C7.72021 12.6406 7.9318 12.2744 8.2085 11.957C8.48519 11.6396 8.82699 11.3914 9.23389 11.2124C9.64079 11.0252 10.1087 10.9316 10.6377 10.9316C11.1748 10.9316 11.6468 11.0252 12.0537 11.2124C12.4606 11.3914 12.8024 11.6396 13.0791 11.957C13.3558 12.2744 13.5633 12.6406 13.7017 13.0557C13.8481 13.4707 13.9214 13.9102 13.9214 14.374V15.3262C13.9214 15.79 13.8481 16.2295 13.7017 16.6445C13.5633 17.0596 13.3558 17.4217 13.0791 17.731C12.8024 18.0483 12.4606 18.3006 12.0537 18.4878C11.6549 18.6668 11.1911 18.7563 10.6621 18.7563C10.125 18.7563 9.64893 18.6668 9.23389 18.4878C8.82699 18.3006 8.48519 18.0483 8.2085 17.731C7.9318 17.4217 7.72021 17.0596 7.57373 16.6445C7.43538 16.2295 7.36621 15.79 7.36621 15.3262V14.374ZM9.05078 15.3262C9.05078 15.5785 9.07926 15.8226 9.13623 16.0586C9.20133 16.2946 9.29899 16.5021 9.4292 16.6812C9.55127 16.8683 9.71403 17.0189 9.91748 17.1328C10.1209 17.2386 10.3691 17.2915 10.6621 17.2915C10.9469 17.2915 11.187 17.2386 11.3823 17.1328C11.5858 17.0189 11.7485 16.8683 11.8706 16.6812C11.9927 16.5021 12.0822 16.2946 12.1392 16.0586C12.1961 15.8226 12.2246 15.5785 12.2246 15.3262V14.374C12.2246 14.1217 12.1961 13.8776 12.1392 13.6416C12.0822 13.4056 11.9927 13.194 11.8706 13.0068C11.7404 12.8278 11.5736 12.6854 11.3701 12.5796C11.1667 12.4657 10.9225 12.4087 10.6377 12.4087C10.3447 12.4087 10.0965 12.4657 9.89307 12.5796C9.69775 12.6854 9.53906 12.8278 9.41699 13.0068C9.28678 13.194 9.1932 13.4056 9.13623 13.6416C9.07926 13.8776 9.05078 14.1217 9.05078 14.374V15.3262ZM4.35107 16.2051L2.99609 15.4482L9.91748 2.78955L11.2725 3.54639L4.35107 16.2051Z" />
	</symbol>
	<symbol viewBox="0 0 24 24" id="sign-changer">
		<title>
			sign changer
		</title>
		<path d="M7.14746 5.06299H11.5786V6.91846H7.14746V11.9722H5.09668V6.91846H0.396973V5.06299H5.09668V0.0336914H7.14746V5.06299ZM11.0659 15.4878H0.873047V13.6445H11.0659V15.4878Z" />
	</symbol>
	<symbol viewBox="0 0 24 24" id="clear">
		<title>
			clear
		</title>
		<path d="M13.1279 13.1533C13.0221 13.9753 12.8105 14.7321 12.4932 15.4238C12.1758 16.1074 11.7648 16.6934 11.2603 17.1816C10.7476 17.6781 10.1413 18.0646 9.44141 18.3413C8.74967 18.6099 7.97656 18.7441 7.12207 18.7441C6.38965 18.7441 5.72233 18.6424 5.12012 18.439C4.52604 18.2274 3.99707 17.9385 3.5332 17.5723C3.0612 17.2061 2.6543 16.7747 2.3125 16.2783C1.97884 15.7819 1.70215 15.2407 1.48242 14.6548C1.25456 14.0688 1.08366 13.4544 0.969727 12.8115C0.863932 12.1686 0.806966 11.5176 0.798828 10.8584V8.38037C0.806966 7.72119 0.863932 7.07015 0.969727 6.42725C1.08366 5.78434 1.25456 5.16992 1.48242 4.58398C1.70215 3.99805 1.97884 3.45687 2.3125 2.96045C2.6543 2.45589 3.0612 2.02051 3.5332 1.6543C3.99707 1.28809 4.52604 1.00326 5.12012 0.799805C5.71419 0.588216 6.38151 0.482422 7.12207 0.482422C8.00911 0.482422 8.80257 0.620768 9.50244 0.897461C10.2023 1.16602 10.8045 1.5485 11.3091 2.04492C11.8136 2.54948 12.2165 3.15169 12.5176 3.85156C12.8268 4.55143 13.0303 5.32454 13.1279 6.1709H10.8696C10.7964 5.63379 10.6702 5.1333 10.4912 4.66943C10.3122 4.20557 10.0721 3.79867 9.771 3.44873C9.46989 3.0988 9.09961 2.82617 8.66016 2.63086C8.22884 2.42741 7.71615 2.32568 7.12207 2.32568C6.58496 2.32568 6.10889 2.4152 5.69385 2.59424C5.28695 2.76514 4.93701 3.00114 4.64404 3.30225C4.34294 3.60335 4.09066 3.95329 3.88721 4.35205C3.69189 4.75081 3.5332 5.17399 3.41113 5.62158C3.28906 6.06917 3.19954 6.52897 3.14258 7.00098C3.09375 7.46484 3.06934 7.9165 3.06934 8.35596V10.8584C3.06934 11.2979 3.09375 11.7536 3.14258 12.2256C3.19954 12.6895 3.28906 13.1452 3.41113 13.5928C3.5332 14.0485 3.69189 14.4757 3.88721 14.8745C4.08252 15.2733 4.33073 15.6232 4.63184 15.9243C4.93294 16.2336 5.28695 16.4777 5.69385 16.6567C6.10075 16.8276 6.57682 16.9131 7.12207 16.9131C7.71615 16.9131 8.22884 16.8195 8.66016 16.6323C9.09961 16.4451 9.46989 16.1807 9.771 15.8389C10.0721 15.5052 10.3122 15.1105 10.4912 14.6548C10.6702 14.1909 10.7964 13.6904 10.8696 13.1533H13.1279Z" />
	</symbol>
	<symbol viewBox="0 0 24 24" id="decimal">
		<title>
			decimal
		</title>
		<path d="M0.547363 2.03516C0.547363 1.55501 0.693848 1.14404 0.986816 0.802246C1.27979 0.460449 1.72331 0.289551 2.31738 0.289551C2.90332 0.289551 3.34684 0.460449 3.64795 0.802246C3.95719 1.1359 4.11182 1.54688 4.11182 2.03516C4.11182 2.5153 3.95719 2.91813 3.64795 3.24365C3.3387 3.56917 2.89518 3.73193 2.31738 3.73193C1.73145 3.73193 1.28792 3.56917 0.986816 3.24365C0.693848 2.90999 0.547363 2.50716 0.547363 2.03516Z" />
	</symbol>
    	<symbol viewBox="0 0 24 24" id="calc">
		<title>
			calculate
		</title>
<path d="M14.0469 1.82812H0.125V0.984375H14.0469V1.82812ZM14.0469 8.1875H0.125V7.34375H14.0469V8.1875Z" />
	</symbol>


    </defs>
</svg>
